<svg xmlns="http://www.w3.org/2000/svg" viewBox="0 0 130 100">
  <title>Icon_NFT</title>
  <g id="Слой_5" data-name="Слой 5">
    <rect x="6.15385" y="5" width="117.69231" height="90" rx="3" style="fill: #f5e9ce"/>
    <path d="M123.84613,92V70.22266c-8.7522,12.12976-27.37793,17.07947-44.15137,17.07947H6.15387V92a3,3,0,0,0,3,3H120.84613A3,3,0,0,0,123.84613,92Z" style="fill: #f2d898"/>
    <path d="M9.15385,5H120.84615a3,3,0,0,1,3,3V21.36532a0,0,0,0,1,0,0H6.15385a0,0,0,0,1,0,0V8A3,3,0,0,1,9.15385,5Z" style="fill: #7f58c7"/>
    <path d="M106.65405,21.3653h17.19208V8.97663C119.823,14.55237,113.71088,18.60724,106.65405,21.3653Z" style="fill: #673bb7"/>
    <line x1="98.33685" y1="13.6844" x2="104.21458" y2="13.6844" style="fill: none;stroke: #000;stroke-linecap: round;stroke-miterlimit: 10;stroke-width: 4px"/>
    <line x1="86.33684" y1="13.6844" x2="92.21457" y2="13.6844" style="fill: none;stroke: #000;stroke-linecap: round;stroke-miterlimit: 10;stroke-width: 4px"/>
    <line x1="74.33683" y1="13.6844" x2="80.21456" y2="13.6844" style="fill: none;stroke: #000;stroke-linecap: round;stroke-miterlimit: 10;stroke-width: 4px"/>
    <line x1="13.7684" y1="13.6844" x2="24.46316" y2="13.6844" style="fill: none;stroke: #000;stroke-linecap: round;stroke-miterlimit: 10;stroke-width: 5px"/>
    <circle cx="110.95113" cy="13.6844" r="1.80677"/>
    <line x1="123.85" y1="21.36058" x2="6.15" y2="21.36058" style="fill: none;stroke: #000;stroke-linecap: round;stroke-linejoin: round;stroke-width: 4px"/>
    <path d="M123.84615,34.06614V92a3,3,0,0,1-3,3H90.98421" style="fill: none;stroke: #000;stroke-linecap: round;stroke-linejoin: round;stroke-width: 4px"/>
    <path d="M27.73157,5h93.11458a3,3,0,0,1,3,3V25.11269" style="fill: none;stroke: #000;stroke-linecap: round;stroke-linejoin: round;stroke-width: 4px"/>
    <path d="M80.56841,95H9.15385a3,3,0,0,1-3-3V8a3,3,0,0,1,3-3h9.9093" style="fill: none;stroke: #000;stroke-linecap: round;stroke-linejoin: round;stroke-width: 4px"/>
    <rect x="42.5638" y="75.61272" width="18.9362" height="7" rx="3.5" style="fill: #675ef2;stroke: #000;stroke-miterlimit: 10;stroke-width: 4px"/>
    <rect x="68.5" y="75.61272" width="18.9362" height="7" rx="3.5" style="fill: #675ef2;stroke: #000;stroke-miterlimit: 10;stroke-width: 4px"/>
    <circle cx="64.97784" cy="47.45405" r="17.15728" style="fill: #bfc8ff"/>
    <path d="M79.03387,37.63248a17.14432,17.14432,0,0,1-30.5473,14.51379,17.1494,17.1494,0,1,0,30.5473-14.51379Z" style="fill: #a0adfa"/>
    <path d="M52.20693,35.98634a17.16443,17.16443,0,1,1-3.812,7.06159" style="fill: none;stroke: #000;stroke-linecap: round;stroke-linejoin: round;stroke-width: 4px"/>
    <polyline points="57.674 48.896 62.474 53.444 73.337 43.465" style="fill: none;stroke: #000;stroke-linecap: round;stroke-linejoin: round;stroke-width: 4px"/>
  </g>
</svg>
