<svg id="Слой_1" data-name="Слой 1" xmlns="http://www.w3.org/2000/svg" viewBox="0 0 1684.02 587.14"><defs><style>.cls-1{fill:#fff;}</style></defs><path class="cls-1" d="M106,588.41c0-48.64.07-97.29-.06-145.94,0-7.76,2.77-13,9.76-16.9,22.72-12.83,45.13-26.22,67.72-39.3,3.54-2,6-4.18,5.49-8.88-1.11-11.23,4.57-17.81,14.25-23.35,51.54-29.51,102.74-59.63,154.05-89.55,3.92-2.29,7.82-4.29,12.65-3.87,6.81.59,11.07,4.68,11.91,11.49,1.17,9.43,0,18.84,0,28.25,0,12.58.05,25.15,0,37.72a11.58,11.58,0,0,0,3.3,8.49c25.18,27.27,50.21,54.69,75.42,81.93a16.9,16.9,0,0,1,4.74,12.16q0,147.29,0,294.58c0,7.21-2.73,12.12-9.18,15.85q-80.61,46.68-161,93.8c-6.53,3.82-12.49,3.72-19-.09Q196.29,798,116.3,751.67c-7.48-4.31-10.29-9.77-10.26-18,.14-48.42.07-96.84.07-145.26Zm193.24,221.2a25.12,25.12,0,0,0,3.18-1.2q65.66-38.17,131.31-76.36c2.89-1.68,3.66-3.91,3.88-7.15,1.14-16.67-.31-33.31-.08-50,.32-23.18.38-46.36.38-69.54,0-22.28-.33-44.55-.32-66.83,0-22.73.34-45.46.36-68.19,0-6.44-.91-6.78-6.43-3.56Q368.29,503.73,305,540.53c-4.24,2.45-5.81,5.12-5.79,10.06.2,44.15.12,88.31.11,132.46,0,3.15.17,6.33-.13,9.45-.89,9.21-9.32,14.56-18,11.6-6.46-2.2-9.08-6.79-9.09-16.3q0-69.94.06-139.89c0-4.24-.86-7.5-4-10.82q-34.8-37.26-69.1-75a8.62,8.62,0,0,0-6.28-3.11c-17.27-1.34-34.57-2.5-51.77-4.46-6-.68-7.29.7-7.28,6.44q.23,130.42-.06,260.85c0,6.14,2.11,9.25,7.11,12.13,41.12,23.75,82.09,47.75,123.17,71.57,2.38,1.38,4.55,3.66,8.11,3.41V802.1c0-18.24-.06-36.49,0-54.74,0-10.42,5.31-16.5,13.85-16.34s13.31,5.86,13.36,16c.08,12.84,0,25.68,0,38.52ZM216.54,409.8c0,5.18.54,10.43-.11,15.52-1.32,10.37,2.1,18.08,9.47,25.67,20,20.67,39.29,42.13,58.7,63.42,2.84,3.11,5.08,3.4,8.57,1.2,7-4.44,14.33-8.48,21.53-12.68q55.11-32.13,110.23-64.26c2.55-1.48,5.54-2.28,1.92-6.14Q398.24,402,370.05,371c-3.33-3.67-5.66-3.44-9.59-1.12-26.16,15.47-52.46,30.67-78.72,46-8,4.64-15.89,9.4-23.95,13.89-5.22,2.9-10.63,3.61-15.94-.05s-5.79-8.81-5.09-14.42c.67-5.36,4.78-7.82,8.94-10.24q51.92-30.24,103.86-60.45c3.73-2.16,5.5-4.46,5.34-9-.37-10.12-.09-20.27-.12-30.4,0-6.55-.61-6.92-6.27-3.62Q284.36,339,220.18,376.32c-2.74,1.59-3.74,3.4-3.69,6.45C216.63,391.77,216.54,400.79,216.54,409.8ZM164.91,429c4.44.55,7.1,1.05,9.77,1.18,18,.88,14.42,3.52,14.27-14.75a14.44,14.44,0,0,0-2.49.89C179.73,420.19,173,424.16,164.91,429Z" transform="translate(-105.98 -260.56)"/><path class="cls-1" d="M1602.65,539.55c10.29-12.13,22-20.65,37.31-23.82,21.78-4.5,39.23,2.8,50.55,21.86,2.72,4.57,3.86,2.53,5.84-.17,14.38-19.58,34-25.38,57.23-21.6,17.55,2.86,27.6,13.93,32.61,30.33,2.72,8.92,3.55,18.13,3.61,27.36.18,28.38-.07,56.77.2,85.15,0,5.25-1.63,6.45-6.55,6.29q-16.54-.53-33.11,0c-4.85.15-6-1.48-6-6.13.22-25,.11-50,.1-75,0-5.41-.1-10.79-1.42-16.1-2.33-9.38-7.62-15.83-17.45-17.43-9.57-1.56-17.27,1.94-22.8,9.89-5,7.12-6.34,15.22-6.31,23.74.08,24.56-.18,49.12.18,73.67.09,6-1.6,7.69-7.52,7.4-10.34-.5-20.74-.45-31.08,0-5.52.24-7.24-1.22-7.17-7,.32-25.68.14-51.37.15-77a54.42,54.42,0,0,0-1.14-12.06c-2.67-11.8-8.67-17.84-19-18.89s-19.9,4.65-24.34,14.59c-3.39,7.6-3.79,15.72-3.83,23.83-.11,23.2-.17,46.41.06,69.61,0,5-.89,7.18-6.55,6.94-11-.47-22.08-.28-33.11-.06-3.94.08-5.49-.78-5.47-5.16q.24-67.92,0-135.84c0-4.34,1.45-5.28,5.43-5.19,11.49.23,23,.26,34.47,0,4.33-.1,5.4,1.55,5.2,5.5C1602.45,529.31,1602.65,534.44,1602.65,539.55Z" transform="translate(-105.98 -260.56)"/><path class="cls-1" d="M690.11,557c19.3-31.64,39.65-60.48,58.71-90.16,3.1-4.83,6.41-6.4,12-6.26,15.27.38,30.56.13,47.17.13-4.6,6.42-8.53,12-12.57,17.53C777.17,503.09,759,528,740.54,552.72c-3.22,4.29-2.76,6.9.2,10.94,23.44,31.94,46.64,64.06,69.91,96.12.91,1.26,1.75,2.57,2.63,3.87-1.44,2.06-3.4,1.13-5,1.14-15.54.09-31.09-.13-46.62.17-4.45.09-6.88-1.5-9.24-5.06-18.19-27.37-36.6-54.6-54.86-81.92-2.21-3.32-4-7-6-10.61-2.43,2.31-1.38,4.93-1.38,7.22-.09,27.47-.31,54.95.12,82.42.11,6.8-2,8.28-8.31,8-10.78-.53-21.62-.36-32.42,0-4.55.13-5.64-1.43-5.64-5.76q.18-96.61,0-193.24c0-4.14,1.2-5.44,5.34-5.35,11.26.25,22.53.38,33.78,0,5.5-.2,7.27,1.2,7.2,7-.32,27-.14,54.05-.14,81.08Z" transform="translate(-105.98 -260.56)"/><path class="cls-1" d="M1474.2,642.55c-2,2.53-2.79,3.52-3.57,4.54-14.45,19.08-35,26.12-58,19.92-19-5.11-31.13-20.73-33.28-43.68-2.69-28.76-.67-57.61-1.13-86.42-.1-5.77-2.54-13.25,1.12-16.91s11.12-1,16.91-1.15c6.75-.2,13.53.3,20.26-.16,5.49-.37,7.29,1.19,7.22,7-.33,25.22-.16,50.44-.12,75.67,0,4.49-.08,9,1,13.42,3,11.9,9.48,17.92,20.73,18.86s21.17-4.73,25.76-14.82c2.58-5.66,3.1-11.66,3.08-17.8,0-25,.21-50-.18-75-.09-6.16,1.78-7.57,7.58-7.32,11,.46,22.07.27,33.1.06,3.86-.08,5,1.2,5,5q-.15,68.24,0,136.48c0,3.5-1.08,4.73-4.63,4.69q-18.24-.25-36.49,0c-3.8.06-4.52-1.65-4.42-4.9C1474.32,654.85,1474.2,649.67,1474.2,642.55Z" transform="translate(-105.98 -260.56)"/><path class="cls-1" d="M947.7,624.14c0,11-.06,20.61,0,30.27,0,2.38-.9,3.91-3,4.72-32.15,12.44-64.35,16-95.42-2.42-16.21-9.62-24.42-25.48-27.31-43.88-3.59-22.78-2.18-44.92,10.26-65.18,21.18-34.49,73.13-44.29,104.4-19.62,15.77,12.43,21.92,29.75,23.35,49.06.5,6.73-.13,13.53.33,20.26.36,5.22-1.16,6.86-6.62,6.8-27.25-.3-54.51,0-81.76-.26-6-.06-7.34,1.61-5.9,7.29,4,15.71,15.54,24.28,34.81,25.12A80.13,80.13,0,0,0,947.7,624.14Zm-55.85-47.21c7.41,0,14.82,0,22.23,0,2,0,3.79.32,4.26-2.78,1.77-11.47-6.7-24.56-18.05-27.36-16.15-4-34.53,10.26-34.93,26.86-.09,3.71,2,3.28,4.26,3.28C877,576.94,884.44,576.93,891.85,576.93Z" transform="translate(-105.98 -260.56)"/><path class="cls-1" d="M999.29,608.75V562.12c0-9.47,0-9.47-9.82-9.47-3.38,0-6.76-.12-10.13,0-3,.13-4.61-.56-4.54-4q.27-12.84,0-25.68c-.07-3.29,1.21-4.32,4.35-4.21,5,.18,9.93-.2,14.86.12,4.14.27,5.47-1.09,5.38-5.3-.17-7.86-.63-15.89.64-23.58,4.4-26.65,24.68-43.86,52.66-45.39,8.56-.47,17.07-.38,25.42,2.24,3.35,1,4.76,2.63,4.68,6.19-.19,8.56-.28,17.13,0,25.68.16,4.68-1.67,4.67-5.09,3.27a36.06,36.06,0,0,0-5.85-1.59c-16.53-3.53-27,4.48-27.76,21.23-.8,17.18-.8,17.06,16.24,17.24,5.54.06,12.72-2.51,16.21,1.16s1,10.74,1,16.31c.15,16.31.06,16.31-16.46,16.31-17.07,0-17.07,0-17.07,17.09,0,29.73-.1,59.47.11,89.2,0,4.76-1.3,6.15-6,6-11-.34-22.08-.36-33.11,0-5,.17-5.91-1.72-5.84-6.21C999.43,642.09,999.29,625.42,999.29,608.75Z" transform="translate(-105.98 -260.56)"/><path class="cls-1" d="M1227.79,543c1.4-2.74,2.73-5.53,4.22-8.22,8-14.53,22.51-21.86,38.94-19.94,4.45.52,6.75,2.11,6.57,7.2-.36,10.57-.19,21.15-.06,31.73,0,3.53-.9,4.3-4.26,2.94a36.91,36.91,0,0,0-19.87-2.39c-14,2.24-23.74,13.82-25.55,30-1.83,16.38-.64,32.82-.93,49.23-.16,8.77-.18,17.56,0,26.33.09,3.75-1.05,5.13-5,5.06-11.47-.22-23-.35-34.43,0-5.13.18-5.73-2-5.71-6.29.16-30.6.09-61.21.09-91.82,0-14.17.17-28.36-.11-42.53-.08-4.49,1.33-5.71,5.7-5.61,11.47.28,23,.23,34.43,0,3.86-.07,5.13,1.21,5,5-.26,6.29-.07,12.6-.07,18.9Z" transform="translate(-105.98 -260.56)"/><path class="cls-1" d="M1099.42,591.8c0-22.08.13-44.16-.1-66.23-.06-5,.8-7.17,6.49-6.91,11,.5,22.08.29,33.12.07,3.93-.08,5.53.81,5.51,5.18q-.23,67.92,0,135.85c0,4.42-1.68,5.22-5.56,5.15-11-.2-22.1-.43-33.11.08-5.78.27-6.51-2-6.46-7C1099.54,636,1099.42,613.88,1099.42,591.8Z" transform="translate(-105.98 -260.56)"/><path class="cls-1" d="M1343.08,591.81c0,22.08-.13,44.16.11,66.23,0,5-.91,7.18-6.56,6.94-11-.47-22.08-.28-33.11-.06-4,.08-5.48-.8-5.47-5.17q.24-67.92,0-135.85c0-4.35,1.48-5.25,5.45-5.17,11.26.23,22.54.32,33.79,0,5-.15,5.93,1.69,5.89,6.21C1343,547.2,1343.08,569.5,1343.08,591.81Z" transform="translate(-105.98 -260.56)"/><path class="cls-1" d="M1321.27,501.81c-13.47.05-22-8.83-20.49-21.37a14.77,14.77,0,0,1,.72-3.09c3.12-8.73,13.46-13.63,24.4-11.6,10.11,1.88,16,9.13,15.55,19.11S1332.74,501.76,1321.27,501.81Z" transform="translate(-105.98 -260.56)"/><path class="cls-1" d="M1122.51,501.81c-13.48.05-22-8.83-20.49-21.37a14.17,14.17,0,0,1,.72-3.09c3.12-8.73,13.45-13.63,24.39-11.6,10.11,1.88,16,9.13,15.56,19.11S1134,501.76,1122.51,501.81Z" transform="translate(-105.98 -260.56)"/><path class="cls-1" d="M1117.12,731.85c7.87-8.68,16.48-11.92,26.85-9.21,9.72,2.55,16.11,9.81,17.12,20.24,1,9.74-2.61,17.81-11.08,23-15.51,9.5-33.9,2.14-38.5-15.38a53.64,53.64,0,0,1-.17-25.41c2.5-11.35,9.5-18.74,20.54-22,7.11-2.1,14.42-3.48,21.63-5.25,2.1-.51,3.88-1,4.67,2,.84,3.12-.72,3.89-3.31,4.46-7.24,1.59-14.54,3-21.64,5.16C1123,712.48,1118.06,719.27,1117.12,731.85Zm19.31,31.8c10.32-.06,17.55-7.44,17.64-18s-7.15-17.59-17.89-17.6c-10.89,0-18,6.88-18,17.43C1118.23,756.23,1125.73,763.71,1136.43,763.65Z" transform="translate(-105.98 -260.56)"/><path class="cls-1" d="M658.79,717c0,15.8,0,31.11,0,46.41,0,2.45,1.09,5.66-3.52,5.57s-3.24-3.48-3.26-5.79c-.09-18-.12-36,0-54,0-2.12-1.68-5.27,1.76-6.33,3-.93,4.86.94,6.69,3.27,11.81,15,23.77,30,35.69,44.91,1,1.22,2,2.39,3,3.62,2.37-1.25,1.25-3.27,1.26-4.78.11-14.19,0-28.37.08-42.55,0-2.18-.55-4.55,3.09-4.67,3.87-.13,3.69,2.2,3.68,4.81,0,18.23.05,36.47-.08,54.7,0,2.21,1.51,5.32-1.55,6.54-3.26,1.31-5.3-.92-7.24-3.39-11.66-14.87-23.43-29.66-35.17-44.47C662.19,719.43,661.56,717.6,658.79,717Z" transform="translate(-105.98 -260.56)"/><path class="cls-1" d="M1004.49,761.75v21.09c0,2.28.25,4.57-3.2,4.69-3.77.13-3.78-2.26-3.78-4.88,0-19.12,0-38.25.07-57.37,0-2.31-1.49-5.82,3-6.2,5.08-.45,3.37,3.5,3.92,6a4,4,0,0,0,.59,1.09c14.82-10.15,27.63-9.82,37.17,1,8,9.07,7.93,24.58-.22,34.21C1033.58,771.32,1019.67,771.77,1004.49,761.75Zm36.78-17.31c.2-11.22-7.85-19.94-18.39-19.92-10.72,0-18.25,7.82-18.38,19.05-.14,11.82,7.12,19.77,18.13,19.83C1033.12,763.46,1041.08,755.37,1041.27,744.44Z" transform="translate(-105.98 -260.56)"/><path class="cls-1" d="M1243.53,756.35,1271.72,723c1.88-2.23,3.64-5,7.15-3.82,3.68,1.2,2.11,4.54,2.14,6.92.16,12.6.09,25.21.06,37.81,0,2.38.64,5-3.42,5-3.83,0-3.68-2.25-3.67-4.86,0-10.74,0-21.47,0-34.22-6.89,8.15-12.6,14.88-18.29,21.63-4.06,4.81-8.15,9.59-12.1,14.5-1.89,2.34-4.15,3.6-7,2.72-3.08-1-1.71-3.81-1.73-5.8-.13-12.83-.07-25.66-.06-38.49,0-2.64-.64-5.61,3.78-5.42,4,.17,3.26,3,3.28,5.31.07,10.53,0,21.07,0,31.61Z" transform="translate(-105.98 -260.56)"/><path class="cls-1" d="M948.41,762.45c-7.67,6.75-15.15,8.09-23.26,6.31-7-1.54-11.86-7-12.08-13.53-.22-6.78,3.86-11.53,11.59-13.64,6.2-1.69,12.53-.88,18.79-.81,4.14,0,5.08-1.67,4.57-5.24-.79-5.47-3.59-9.1-9.19-10.21A25.71,25.71,0,0,0,921.21,728c-2,1.09-3.85,2.59-5.49-.51-1.77-3.32,1.17-3.82,2.89-4.82,7.38-4.26,15.41-4.94,23.52-3.18,7.72,1.68,12.46,7.94,12.66,16.22.21,9,.18,18,0,27,0,2.07,1.72,5.25-2.11,6.08S947.67,767.18,948.41,762.45ZM936,745.83c-2.87.3-6.73-.51-10.42,1-6.53,2.73-7.71,10.24-2.26,14.58,6.45,5.13,19.89,2.2,23.66-5.16,3.47-6.77,1.36-10.43-6-10.45Z" transform="translate(-105.98 -260.56)"/><path class="cls-1" d="M728.9,735.36c0-9.23.14-18.47-.06-27.7-.09-3.67.83-5.18,4.84-5.1,12.15.23,24.32.08,36.48.09,2,0,4.16-.34,4.33,2.78.18,3.32-1.81,3.56-4.32,3.55-9.68-.05-19.37.15-29-.1-4.17-.1-5.58,1.34-5.34,5.44a133.93,133.93,0,0,1,0,14.86c-.22,4.06,1.18,5.6,5.36,5.47,8.1-.26,16.22-.1,24.32,0,2.15,0,4.79-.58,4.94,2.94.17,4-2.69,3.44-5.11,3.45-7.88,0-15.77.21-23.65-.06-4.31-.14-6.14,1.13-5.88,5.69.33,5.61.12,11.26.06,16.89,0,2.54.88,5.59-3.68,5.44-4.13-.14-3.2-2.94-3.22-5.21C728.87,754.28,728.9,744.82,728.9,735.36Z" transform="translate(-105.98 -260.56)"/><path class="cls-1" d="M1078.81,759.41c5.33-11.95,10.85-23.95,16-36.1,1.67-3.93,3.88-5.16,8.35-3.54-5.94,13.35-11.82,26.64-17.76,39.9-2.85,6.35-5.49,12.82-8.79,18.94-4.76,8.81-14,11.72-22.41,7.48-1.89-1-4.46-1.68-3.15-4.88s3-1.85,5.19-.84c4.56,2.06,9.49,2.46,12.91-1.94,3.24-4.16,6.3-8.35,3.21-14.61-6.26-12.68-11.8-25.72-17.43-38.7-.74-1.72-4-4.3-.28-5.87,3.12-1.33,5.19.6,6.57,3.84,4.74,11.15,9.78,22.19,14.73,33.25C1076.48,757.52,1076.67,759,1078.81,759.41Z" transform="translate(-105.98 -260.56)"/><path class="cls-1" d="M1215.78,744.54q0,9.78,0,19.56c0,2.51.37,5-3.59,4.83-3.57-.18-3.07-2.54-3.08-4.73,0-10.79-.22-21.59.09-32.37.13-4.77-.86-6.67-6.2-6.64-17.6.1-17.55-.13-18.53,17.49-.37,6.74-1.1,13.47-3.87,19.74-2.22,5-5.88,7.88-11.7,6.87-1.36-.24-2.73-.58-2.69-2.39,0-1.59,0-3.32,2.23-3.48,6.15-.45,7.37-5.11,8.32-9.84,1.92-9.51,1.92-19.22,2.31-28.85.17-4.3,1.29-5.94,5.8-5.78,8.76.32,17.54.23,26.3,0,3.52-.07,4.77,1.12,4.67,4.64C1215.63,730.59,1215.78,737.57,1215.78,744.54Z" transform="translate(-105.98 -260.56)"/><path class="cls-1" d="M802.07,738.5c0-8.32-.13-16.63.06-24.94.08-3.54-1.21-4.78-4.69-4.64-4.94.19-9.89,0-14.83.05-2.45,0-3.73-.77-3.69-3.49s1.54-2.84,3.52-2.84c15.5,0,31,0,46.52,0,2.49,0,3.78.77,3.67,3.46-.1,2.49-1.61,2.89-3.61,2.88-4,0-8.15.4-12.13-.09-6.5-.8-7.89,2-7.74,8,.36,15.27.18,30.56.05,45.84,0,2.47,1.68,6.21-3.5,6.23s-3.52-3.66-3.57-6.17C802,754.68,802.07,746.59,802.07,738.5Z" transform="translate(-105.98 -260.56)"/><path class="cls-1" d="M893.17,742.78c6.36,3.27,10.73,7.45,8.88,14.6s-8,9.94-14.56,11.4a34.87,34.87,0,0,1-23-2.84c-2.1-1-4.17-2.08-3-5,1.64-4.16,3.68-.68,5.27-.09,7.14,2.63,14.3,4.08,21.7,1.33,4-1.5,7.25-3.92,6.82-8.85-.42-4.73-4.19-6.12-8-7-2.36-.56-4.95-.17-7.36-.6-2.25-.4-6.24,1.8-6.15-2.73.09-4,3.75-2.1,5.84-2.28,3.14-.27,6.28-.12,9.27-1.42s5.05-3.07,5-6.48-2.1-5.37-5-6.59c-6.87-2.94-13.64-1.68-20.38.63-1.95.67-4.16,2.44-5.3-1.17-.93-3,1.38-3.34,3.12-4.17,6.33-3,13.1-3.26,19.83-2.4,6.2.79,12.1,3,14.22,9.66C902.44,735,898.85,739.33,893.17,742.78Z" transform="translate(-105.98 -260.56)"/></svg>