<svg width="22" height="22" viewBox="0 0 22 22" fill="none" xmlns="http://www.w3.org/2000/svg">
<circle cx="11" cy="11" r="10" stroke="#8F9499" stroke-width="2"/>
<path d="M10.038 12.598C10.038 12.1127 10.1453 11.7113 10.36 11.394C10.584 11.0767 10.906 10.7267 11.326 10.344C11.634 10.064 11.858 9.83067 11.998 9.644C12.1473 9.448 12.222 9.22867 12.222 8.986C12.222 8.64067 12.082 8.37 11.802 8.174C11.5313 7.96867 11.1673 7.866 10.71 7.866C10.2713 7.866 9.87933 7.95933 9.534 8.146C9.198 8.32333 8.91333 8.57533 8.68 8.902L6.986 7.908C7.378 7.31067 7.90533 6.84867 8.568 6.522C9.24 6.19533 10.0333 6.032 10.948 6.032C12.0213 6.032 12.88 6.26067 13.524 6.718C14.1773 7.17533 14.504 7.81 14.504 8.622C14.504 9.00467 14.4387 9.34067 14.308 9.63C14.1867 9.91933 14.0327 10.1667 13.846 10.372C13.6687 10.568 13.4353 10.7967 13.146 11.058C12.8007 11.366 12.5487 11.6273 12.39 11.842C12.2313 12.0473 12.152 12.2993 12.152 12.598H10.038ZM11.102 16.112C10.7193 16.112 10.3973 15.9907 10.136 15.748C9.884 15.496 9.758 15.1927 9.758 14.838C9.758 14.4833 9.884 14.1893 10.136 13.956C10.388 13.7133 10.71 13.592 11.102 13.592C11.494 13.592 11.816 13.7133 12.068 13.956C12.32 14.1893 12.446 14.4833 12.446 14.838C12.446 15.1927 12.3153 15.496 12.054 15.748C11.802 15.9907 11.4847 16.112 11.102 16.112Z" fill="#8F9499"/>
</svg>
