<svg id="Слой_2" data-name="Слой 2" xmlns="http://www.w3.org/2000/svg" viewBox="0 0 130 100">
  <title>Icon_NFT</title>
  <rect x="6.15385" y="5" width="117.69231" height="90" rx="3" style="fill: #bfc8ff"/>
  <path d="M123.84613,92V70.22266c-8.7522,12.12976-27.37793,17.07947-44.15137,17.07947H6.15387V92a3,3,0,0,0,3,3H120.84613A3,3,0,0,0,123.84613,92Z" style="fill: #a0adfa"/>
  <path d="M9.15385,5H120.84615a3,3,0,0,1,3,3V21.36532a0,0,0,0,1,0,0H6.15385a0,0,0,0,1,0,0V8A3,3,0,0,1,9.15385,5Z" style="fill: #7f58c7"/>
  <path d="M106.65405,21.3653h17.19208V8.97663C119.823,14.55237,113.71088,18.60724,106.65405,21.3653Z" style="fill: #673bb7"/>
  <polyline points="6.154 21.365 67.758 21.365 78.321 21.365 123.846 21.365" style="fill: none;stroke: #000;stroke-linecap: round;stroke-linejoin: round;stroke-width: 4px"/>
  <path d="M6.15385,73.02848V8a3,3,0,0,1,3-3H37.06316" style="fill: none;stroke: #000;stroke-linecap: round;stroke-linejoin: round;stroke-width: 4px"/>
  <path d="M90.56842,95H9.15385a3,3,0,0,1-3-3V81.93374" style="fill: none;stroke: #000;stroke-linecap: round;stroke-linejoin: round;stroke-width: 4px"/>
  <path d="M45.73158,5h75.11457a3,3,0,0,1,3,3V92a3,3,0,0,1-3,3H100.98421" style="fill: none;stroke: #000;stroke-linecap: round;stroke-linejoin: round;stroke-width: 4px"/>
  <line x1="98.33685" y1="13.6844" x2="104.21458" y2="13.6844" style="fill: none;stroke: #000;stroke-linecap: round;stroke-miterlimit: 10;stroke-width: 4px"/>
  <line x1="86.33684" y1="13.6844" x2="92.21457" y2="13.6844" style="fill: none;stroke: #000;stroke-linecap: round;stroke-miterlimit: 10;stroke-width: 4px"/>
  <line x1="71.61629" y1="32.43651" x2="83.57418" y2="32.43651" style="fill: none;stroke: #000;stroke-linecap: round;stroke-miterlimit: 10;stroke-width: 4px"/>
  <line x1="31.64291" y1="76.15728" x2="43.6008" y2="76.15728" style="fill: none;stroke: #000;stroke-linecap: round;stroke-miterlimit: 10;stroke-width: 4px"/>
  <line x1="71.61629" y1="54.67795" x2="83.57418" y2="54.67795" style="fill: none;stroke: #000;stroke-linecap: round;stroke-miterlimit: 10;stroke-width: 4px"/>
  <line x1="74.33683" y1="13.6844" x2="80.21456" y2="13.6844" style="fill: none;stroke: #000;stroke-linecap: round;stroke-miterlimit: 10;stroke-width: 4px"/>
  <line x1="13.7684" y1="13.6844" x2="24.46316" y2="13.6844" style="fill: none;stroke: #000;stroke-linecap: round;stroke-miterlimit: 10;stroke-width: 5px"/>
  <circle cx="110.95113" cy="13.6844" r="1.80677"/>
  <rect x="71.61629" y="38.43652" width="34.4813" height="8" rx="4" style="fill: #a0adfa;stroke: #000;stroke-miterlimit: 10;stroke-width: 4px"/>
  <rect x="71.61629" y="60.67795" width="34.4813" height="8" rx="4" style="fill: #a0adfa;stroke: #000;stroke-miterlimit: 10;stroke-width: 4px"/>
  <rect x="71.61629" y="75.78115" width="16.23103" height="7" rx="3.5" style="fill: #673bb7;stroke: #000;stroke-miterlimit: 10;stroke-width: 4px"/>
  <g>
    <circle cx="37.43115" cy="53" r="17.15728" style="fill: #7f58c7"/>
    <path d="M34.1613,65.60954a22.96977,22.96977,0,0,1-10.66081-2.62031,17.13629,17.13629,0,0,0,31.07265-9.68678A23.07928,23.07928,0,0,1,34.1613,65.60954Z" style="fill: #673bb7"/>
    <path d="M32.40447,56.38275A13.38211,13.38211,0,0,0,24.76561,64.545a17.09775,17.09775,0,0,0,25.3339-.00311,13.38513,13.38513,0,0,0-7.64569-8.1608.80025.80025,0,0,1-.33558-1.23909,6.08725,6.08725,0,1,0-9.37325.00115A.80178.80178,0,0,1,32.40447,56.38275Z" style="fill: #dfd9ff"/>
    <path d="M39.72776,69.98579c.42741-.05767.85414-.11833,1.27087-.20711.1683-.03563.33078-.08594.49726-.12651.40908-.10021.81675-.20447,1.21366-.33362.147-.04754.28893-.10576.43417-.15721.41118-.14633.81885-.3,1.21488-.47623.11853-.05254.23321-.11177.35032-.16688.41551-.19629.82467-.40361,1.22111-.63155.09135-.05233.18006-.10839.2704-.16235.41375-.24808.8181-.51024,1.20832-.79125.06836-.04916.13544-.09981.20305-.15q.60136-.44658,1.16241-.94184.082-.07252.16289-.14592.55917-.50814,1.072-1.06369c.02941-.03184.059-.06342.08817-.09547a13.32283,13.32283,0,0,0-1.92067-3.68886,22.96026,22.96026,0,0,1-23.0909,2.8859c-.10961.26926-.22787.53411-.3201.81182q.5822.63827,1.226,1.216l.02069.01913c.41821.37467.856.72757,1.30927,1.06045l.08317.06072q.678.4917,1.40333.91858c.0186.011.03773.021.05639.03184a17.03388,17.03388,0,0,0,3.08795,1.40117c.04814.01623.09548.03435.14375.05017.50713.16695,1.0261.30732,1.553.42673q.12648.0286.25343.05525c.521.10974,1.05016.19764,1.58765.25863.07763.00879.15613.01387.234.02164.5619.05592,1.13.092,1.70686.092a17.22945,17.22945,0,0,0,1.8045-.09716C39.40205,70.04266,39.56284,70.008,39.72776,69.98579Z" style="fill: #c3b8ff"/>
    <circle cx="37.43115" cy="53" r="17.15728" style="fill: none;stroke: #000;stroke-miterlimit: 10;stroke-width: 4px"/>
    <path d="M32.40447,56.38275A13.38211,13.38211,0,0,0,24.76561,64.545a17.09775,17.09775,0,0,0,25.3339-.00311,13.38513,13.38513,0,0,0-7.64569-8.1608.80025.80025,0,0,1-.33558-1.23909,6.08725,6.08725,0,1,0-9.37325.00115A.80178.80178,0,0,1,32.40447,56.38275Z" style="fill: none;stroke: #000;stroke-linecap: round;stroke-miterlimit: 10;stroke-width: 4px"/>
  </g>
</svg>
