<svg width="35" height="26" viewBox="0 0 35 26" fill="none" xmlns="http://www.w3.org/2000/svg">
<path d="M34.6514 5.61011C34.6514 5.61011 34.3096 3.06137 33.2568 1.94224C31.9238 0.469314 30.4336 0.462094 29.75 0.375451C24.8555 -2.06572e-07 17.5068 0 17.5068 0H17.4932C17.4932 0 10.1445 -2.06572e-07 5.25 0.375451C4.56641 0.462094 3.07617 0.469314 1.74316 1.94224C0.69043 3.06137 0.355469 5.61011 0.355469 5.61011C0.355469 5.61011 0 8.6065 0 11.5957V14.3971C0 17.3863 0.348633 20.3827 0.348633 20.3827C0.348633 20.3827 0.69043 22.9314 1.73633 24.0505C3.06934 25.5235 4.81934 25.4729 5.59863 25.6318C8.40137 25.9134 17.5 26 17.5 26C17.5 26 24.8555 25.9856 29.75 25.6173C30.4336 25.5307 31.9238 25.5235 33.2568 24.0505C34.3096 22.9314 34.6514 20.3827 34.6514 20.3827C34.6514 20.3827 35 17.3935 35 14.3971V11.5957C35 8.6065 34.6514 5.61011 34.6514 5.61011ZM13.8838 17.7978V7.40794L23.3379 12.6209L13.8838 17.7978Z" fill="white"/>
</svg>
